<svg xmlns="http://www.w3.org/2000/svg" xml:space="preserve" width="1500" height="491" data-id="lg_p0Hij97Q5PEks3TrTv" data-version="1" viewBox="0 0 1500 491"><g data-padding="20"><g transform="translate(10 8.752)scale(.96435)"><path fill="#444" stroke="#fff" stroke-width="1.96" d="M486.984 395.627H647.4m239.914-.18h160.416"/><rect width="175.981" height="85.323" x="278.992" y="-214.745" fill="none" rx="0" ry="0" transform="translate(401.57 504.93)"/><path fill="#fff" d="M690.652 356.557v-45.3h-8.69v-7.55h25.68v7.55h-8.69v45.3Zm18.8 0 8.61-52.85h11.25l8.6 52.85h-8.3l-1.51-10.49v.15h-9.44l-1.51 10.34Zm10.19-17.52h7.48l-3.7-26.12h-.15Zm33.08 18.28q-6.04 0-9.13-3.44-3.1-3.43-3.1-9.85v-3.02h7.85v3.62q0 5.14 4.31 5.14 2.11 0 3.21-1.25 1.09-1.25 1.09-4.04 0-3.32-1.51-5.85t-5.59-6.08q-5.13-4.53-7.17-8.19t-2.04-8.27q0-6.27 3.17-9.7 3.17-3.44 9.21-3.44 5.97 0 9.03 3.44 3.06 3.43 3.06 9.85v2.19h-7.86v-2.72q0-2.72-1.05-3.96-1.06-1.25-3.1-1.25-4.15 0-4.15 5.06 0 2.87 1.55 5.36 1.54 2.49 5.62 6.04 5.21 4.53 7.17 8.23 1.97 3.7 1.97 8.69 0 6.49-3.21 9.96-3.21 3.48-9.33 3.48m17.28-.76v-52.85h8.31v22.27l10.57-22.27h8.31l-9.89 19.4 10.04 33.45h-8.69l-7.02-23.56-3.32 6.72v16.84Zm43.27.76q-6.12 0-9.36-3.48-3.25-3.47-3.25-9.81v-27.79q0-6.34 3.25-9.82 3.24-3.47 9.36-3.47t9.36 3.47q3.25 3.48 3.25 9.82v27.79q0 6.34-3.25 9.81-3.24 3.48-9.36 3.48m0-7.55q4.3 0 4.3-5.21v-28.85q0-5.21-4.3-5.21t-4.3 5.21v28.85q0 5.21 4.3 5.21m18.21 6.79v-52.85h10.42l8.08 31.63h.15v-31.63h7.4v52.85h-8.54l-9.96-38.58h-.15v38.58Z"/><rect width="222.134" height="112.548" x="255.915" y="-228.357" fill="none" rx="0" ry="0" transform="translate(401.08 606.76)"/><path fill="#fff" d="M697.852 385.577h-5.01v19.2h-1.89v-19.2h-5.01v-1.8h11.91Zm12.41 19.2h-1.8v-10.98q0-.54-.2-1.02-.21-.48-.56-.83t-.83-.55q-.47-.21-1.02-.21h-1.2q-.54 0-1.01.21-.48.2-.83.55t-.56.83q-.2.48-.2 1.02v10.98h-1.81v-21h1.81v7.26q.61-.73 1.48-1.14.86-.41 1.87-.41h.45q.91 0 1.72.35.8.34 1.4.94.61.6.95 1.41.34.8.34 1.71Zm13.63-4.12q0 .91-.35 1.71-.34.81-.94 1.41t-1.41.94q-.8.35-1.71.35h-1.2q-.91 0-1.72-.35-.8-.34-1.4-.94t-.95-1.41q-.34-.8-.34-1.71v-6.77q0-.91.34-1.71.35-.81.95-1.41t1.4-.94q.81-.35 1.72-.35h1.2q.91 0 1.71.35.81.34 1.41.94t.94 1.41q.35.8.35 1.71v3.53h-8.22v3.34q0 .54.2 1.02.21.47.56.83.35.35.83.55.47.21 1.02.21h1.2q.54 0 1.02-.21.47-.2.82-.55.35-.36.56-.83.2-.48.2-1.02v-1l1.81.3Zm-1.81-4.65v-2.22q0-.54-.2-1.02-.21-.48-.56-.83t-.82-.55q-.48-.21-1.02-.21h-1.2q-.55 0-1.02.21-.48.2-.83.55t-.56.83q-.2.48-.2 1.02v2.22Zm24.73 8.77h-11.82v-21h11.82v1.8h-9.93v7.81h8.04v1.8h-8.04v7.79h9.93Zm13.02-.01h-1.8v-10.98q0-.54-.2-1.02-.21-.48-.56-.83t-.83-.55q-.47-.21-1.02-.21h-1.2q-.54 0-1.01.21-.48.2-.83.55t-.56.83q-.2.48-.2 1.02v10.98h-1.81v-15h.61l.98 1.53q.61-.84 1.54-1.33t2.03-.49h.45q.91 0 1.72.35.8.34 1.4.94.61.6.95 1.41.34.8.34 1.71Zm10.71.01h-1.64q-.82 0-1.54-.3-.73-.31-1.26-.85-.54-.55-.85-1.26-.32-.72-.32-1.54v-9.33h-2.69v-1.72h2.69v-3.6l1.8-.29v3.89h3.81v1.72h-3.81v9.42q0 .45.17.84t.46.68q.3.29.69.46.4.17.85.17h1.64Zm13.33-4.12q0 .91-.34 1.71-.35.81-.95 1.41t-1.4.94q-.81.35-1.72.35h-1.2q-.91 0-1.71-.35-.81-.34-1.41-.94t-.94-1.41q-.35-.8-.35-1.71v-6.77q0-.91.35-1.71.34-.81.94-1.41t1.41-.94q.8-.35 1.71-.35h1.2q.91 0 1.72.35.8.34 1.4.94t.95 1.41q.34.8.34 1.71v3.53h-8.22v3.34q0 .54.21 1.02.2.47.56.83.35.35.82.55.48.21 1.02.21h1.2q.54 0 1.02-.21.48-.2.83-.55.35-.36.56-.83.2-.48.2-1.02v-1l1.8.3Zm-1.8-4.65v-2.22q0-.54-.2-1.02-.21-.48-.56-.83t-.83-.55q-.48-.21-1.02-.21h-1.2q-.54 0-1.02.21-.47.2-.82.55-.36.35-.56.83-.21.48-.21 1.02v2.22Zm11.62-4.52h-1.81q-.54 0-1.01.2-.48.21-.83.56t-.56.83q-.2.47-.2 1.02v10.67h-1.8v-15h.6l.98 1.53q.61-.84 1.54-1.33t2.03-.49h1.06Zm12.42 9.18q0 .91-.35 1.71-.34.81-.94 1.41t-1.41.94q-.8.35-1.71.35h-.45q-1.02 0-1.88-.41t-1.48-1.15v7.27h-1.8v-21.01h.6l.98 1.53q.62-.84 1.55-1.33t2.03-.49h.45q.91 0 1.71.35.81.34 1.41.94t.94 1.41q.35.8.35 1.71Zm-1.8.1v-6.97q0-.54-.21-1.02-.2-.48-.56-.83-.35-.35-.82-.55-.48-.21-1.02-.21h-1.2q-.54 0-1.02.21-.48.2-.83.55t-.55.83q-.21.48-.21 1.02v6.97q0 .54.21 1.02.2.47.55.83.35.35.83.55.48.21 1.02.21h1.2q.54 0 1.02-.21.47-.2.82-.55.36-.36.56-.83.21-.48.21-1.02m11.61-9.28h-1.8q-.54 0-1.02.2-.47.21-.82.56-.36.35-.56.83-.21.47-.21 1.02v10.67h-1.8v-15h.6l.98 1.53q.62-.84 1.55-1.33t2.03-.49h1.05Zm4.95-5.31h-2.09v-2.4h2.09Zm-.14 18.6h-1.8v-15h1.8Zm14.51-3.81q0 .9-.36 1.66-.37.75-1 1.29-.63.55-1.46.85-.82.3-1.73.3h-1.2q-.91 0-1.74-.35-.83-.34-1.45-.94t-.99-1.41q-.38-.8-.38-1.71v-.6l1.8-.3v1q0 .54.23 1.02.23.47.61.83.38.35.88.55.5.21 1.04.21h1.2q.54 0 1.04-.16t.88-.46q.39-.3.62-.73.23-.42.23-.97 0-.8-.35-1.31-.36-.52-.93-.86-.58-.35-1.32-.57-.74-.23-1.52-.46-.78-.22-1.52-.52-.74-.29-1.31-.77-.58-.47-.93-1.19-.36-.72-.36-1.79 0-.91.36-1.66.35-.75.95-1.3.6-.54 1.4-.84t1.7-.3h1.06q.91 0 1.71.35.81.34 1.41.94t.94 1.41q.35.8.35 1.71v.06l-1.8.29v-.45q0-.54-.21-1.02-.2-.48-.56-.83-.35-.35-.82-.55-.48-.21-1.02-.21h-1.06q-.54 0-1.01.16-.48.16-.83.46t-.56.73q-.2.42-.2.96 0 .78.35 1.27t.93.83 1.32.56l1.51.47q.76.24 1.5.55t1.32.79q.58.49.93 1.21.35.73.35 1.8m13.48-.31q0 .91-.34 1.71-.35.81-.95 1.41t-1.4.94q-.81.35-1.72.35h-1.2q-.91 0-1.71-.35-.81-.34-1.41-.94t-.94-1.41q-.35-.8-.35-1.71v-6.77q0-.91.35-1.71.34-.81.94-1.41t1.41-.94q.8-.35 1.71-.35h1.2q.91 0 1.72.35.8.34 1.4.94t.95 1.41q.34.8.34 1.71v3.53h-8.22v3.34q0 .54.21 1.02.2.47.55.83.36.35.83.55.48.21 1.02.21h1.2q.54 0 1.02-.21.48-.2.83-.55.35-.36.55-.83.21-.48.21-1.02v-1l1.8.3Zm-1.8-4.65v-2.22q0-.54-.21-1.02-.2-.48-.55-.83t-.83-.55q-.48-.21-1.02-.21h-1.2q-.54 0-1.02.21-.47.2-.83.55-.35.35-.55.83-.21.48-.21 1.02v2.22Zm-169.52 28.89h-5.01v19.21h-1.89v-19.21h-5v-1.8h11.9Zm12.43 19.21h-.6l-1-1.5q-.62.81-1.54 1.3t-2.02.49h-.45q-.91 0-1.72-.34-.8-.35-1.4-.95t-.95-1.4q-.34-.81-.34-1.72v-.14q0-.91.34-1.72.35-.8.95-1.4.6-.61 1.4-.95.81-.34 1.72-.34h3.8v-2.32q0-.54-.2-1.02-.21-.47-.56-.82-.35-.36-.82-.56-.48-.21-1.02-.21h-1.06q-.54 0-1.02.21-.47.2-.82.56-.35.35-.56.82-.21.48-.21 1.02v.54l-1.8-.29v-.15q0-.9.35-1.71.34-.81.94-1.41t1.41-.94q.8-.34 1.71-.34h1.06q.91 0 1.71.34.81.34 1.41.94t.94 1.41q.35.81.35 1.71Zm-1.81-4.02v-3.25h-3.8q-.55 0-1.02.21-.48.2-.83.56t-.56.84q-.2.47-.2 1.01v.63q0 .55.2 1.02.21.48.56.83t.83.56q.47.2 1.02.2h1.2q.54 0 1.02-.2.47-.21.82-.56t.56-.83q.2-.47.2-1.02m15.72.21q0 .91-.36 1.66-.37.76-1 1.3t-1.46.84-1.73.3h-1.2q-.91 0-1.74-.34-.83-.35-1.45-.95t-1-1.4q-.37-.81-.37-1.72v-.6l1.8-.29v.99q0 .55.23 1.02.23.48.61.83t.88.56q.49.2 1.04.2h1.2q.54 0 1.04-.16.49-.16.88-.46t.62-.73q.23-.42.23-.96 0-.81-.36-1.32-.35-.51-.93-.86-.58-.34-1.32-.57-.73-.23-1.51-.45-.78-.23-1.52-.52-.74-.3-1.32-.77-.57-.48-.93-1.2-.35-.71-.35-1.78 0-.91.35-1.67.36-.75.96-1.29t1.4-.84q.79-.3 1.7-.3h1.06q.9 0 1.71.34t1.41.94.94 1.41q.35.81.35 1.71v.06l-1.81.3v-.46q0-.54-.2-1.02-.21-.47-.56-.82-.35-.36-.83-.56-.47-.21-1.01-.21h-1.06q-.54 0-1.02.17-.47.16-.82.46-.36.3-.56.72-.21.43-.21.97 0 .78.36 1.27.35.49.93.82.57.34 1.31.57.74.22 1.51.47.77.24 1.51.55.74.3 1.32.79.58.48.93 1.21.35.72.35 1.79m14.68 3.81h-2.34l-6.13-7.5 6.13-7.5h2.34l-6.27 7.5Zm-8.82 0h-1.8v-21.01h1.8Zm33.56 0h-1.89v-14.4l-.14.89-4.87 13.51h-1l-4.92-13.51-.12-.89v14.4h-1.89v-21.01h.98l6.38 17.23.05.78.06-.78 6.36-17.23h1Zm14.2 0h-.61l-.99-1.5q-.62.81-1.54 1.3t-2.02.49h-.45q-.91 0-1.72-.34-.8-.35-1.41-.95-.6-.6-.94-1.4-.34-.81-.34-1.72v-.14q0-.91.34-1.72.34-.8.94-1.4.61-.61 1.41-.95.81-.34 1.72-.34h3.8v-2.32q0-.54-.2-1.02-.21-.47-.56-.82-.35-.36-.83-.56-.47-.21-1.01-.21h-1.06q-.54 0-1.02.21-.47.2-.82.56-.36.35-.56.82-.21.48-.21 1.02v.54l-1.8-.29v-.15q0-.9.35-1.71.34-.81.94-1.41t1.41-.94q.8-.34 1.71-.34h1.06q.9 0 1.71.34t1.41.94.94 1.41q.35.81.35 1.71Zm-1.81-4.02v-3.25h-3.8q-.55 0-1.02.21-.48.2-.83.56t-.56.84q-.2.47-.2 1.01v.63q0 .55.2 1.02.21.48.56.83t.83.56q.47.2 1.02.2h1.2q.54 0 1.01-.2.48-.21.83-.56t.56-.83q.2-.47.2-1.02m15.43 4.01h-1.8v-10.99q0-.54-.21-1.02-.2-.47-.55-.82-.36-.36-.83-.56-.48-.21-1.02-.21h-1.2q-.54 0-1.02.21-.48.2-.83.56-.35.35-.55.82-.21.48-.21 1.02v10.99h-1.8v-15h.6l.98 1.52q.62-.83 1.55-1.32t2.03-.49h.45q.91 0 1.71.34.81.34 1.41.94t.94 1.41q.35.81.35 1.71Zm13.62.01h-.6l-1-1.5q-.61.81-1.53 1.3-.93.49-2.02.49h-.46q-.91 0-1.71-.34-.81-.35-1.41-.95t-.94-1.4q-.35-.81-.35-1.72v-.14q0-.91.35-1.72.34-.8.94-1.4.6-.61 1.41-.95.8-.34 1.71-.34h3.81v-2.32q0-.54-.21-1.02-.2-.47-.55-.82-.35-.36-.83-.56-.48-.21-1.02-.21h-1.05q-.54 0-1.02.21-.48.2-.83.56-.35.35-.55.82-.21.48-.21 1.02v.54l-1.8-.29v-.15q0-.9.34-1.71.35-.81.95-1.41t1.4-.94q.81-.34 1.72-.34h1.05q.91 0 1.72.34.8.34 1.4.94t.95 1.41q.34.81.34 1.71Zm-1.8-4.02v-3.25h-3.81q-.54 0-1.02.21-.47.2-.82.56-.36.36-.56.84-.21.47-.21 1.01v.63q0 .55.21 1.02.2.48.56.83.35.35.82.56.48.2 1.02.2h1.2q.54 0 1.02-.2.48-.21.83-.56t.55-.83q.21-.47.21-1.02m15.58 5.9q0 .91-.34 1.67-.35.76-.95 1.3t-1.4.84q-.81.3-1.72.3h-.75q-.9 0-1.71-.3-.8-.3-1.41-.84-.6-.54-.94-1.3t-.34-1.67v-.06q0-.88.32-1.61t.88-1.28q-.71-.42-1.12-1.15-.42-.72-.42-1.6 0-.79.34-1.47.33-.68.92-1.11-.7-.61-1.11-1.48-.41-.86-.41-1.89v-1.13q0-.9.34-1.71t.94-1.41 1.41-.94 1.71-.34h.75q1.1 0 2.03.49t1.55 1.32l.98-1.52h.6v5.24q0 .91-.35 1.72-.34.8-.94 1.4t-1.41.95q-.8.34-1.71.34h-2.61q-.31 0-.58.13-.28.12-.5.33-.21.2-.33.49-.11.28-.11.59t.11.59q.12.27.33.49.22.21.5.33.27.11.58.11h2.46q.91 0 1.72.3.8.3 1.4.85.6.54.95 1.3.34.76.34 1.67Zm-1.64-11.55v-1.33q0-.54-.2-1.02-.21-.47-.57-.82-.36-.36-.83-.56-.48-.21-1.02-.21h-1.5q-.54 0-1.01.21-.48.2-.83.56-.35.35-.56.82-.2.48-.2 1.02v1.33q0 .55.2 1.02.21.48.56.83t.83.56q.47.2 1.01.2h1.5q.54 0 1.02-.2.47-.21.83-.56t.57-.83q.2-.47.2-1.02m-.07 11.64v-.24q0-.54-.21-.97-.2-.43-.55-.73-.36-.29-.83-.45-.48-.16-1.02-.16h-.92q-.55 0-1.02.16-.48.16-.83.45-.35.3-.56.73-.2.43-.2.97v.24q0 .54.2.96.21.43.56.73t.83.46q.47.16 1.02.16h.92q.54 0 1.02-.16.47-.16.83-.46.35-.3.55-.73.21-.42.21-.96m15.18-6.09q0 .91-.35 1.72-.34.8-.94 1.4t-1.41.95q-.8.34-1.71.34h-1.2q-.91 0-1.72-.34-.8-.35-1.4-.95t-.95-1.4q-.34-.81-.34-1.72v-6.77q0-.9.34-1.71.35-.81.95-1.41t1.4-.94q.81-.34 1.72-.34h1.2q.91 0 1.71.34.81.34 1.41.94t.94 1.41q.35.81.35 1.71v3.53h-8.22v3.34q0 .55.2 1.02.21.48.56.83t.83.56q.48.2 1.02.2h1.2q.54 0 1.02-.2.47-.21.82-.56.36-.35.56-.83.21-.47.21-1.02v-.99l1.8.29Zm-1.8-4.64v-2.23q0-.54-.21-1.02-.2-.47-.56-.82-.35-.36-.82-.56-.48-.21-1.02-.21h-1.2q-.54 0-1.02.21-.48.2-.83.56-.35.35-.56.82-.2.48-.2 1.02v2.23Zm23.04 8.75h-1.8v-10.99q0-.54-.21-1.02-.2-.47-.56-.82-.35-.36-.82-.56-.48-.21-1.02-.21h-.89q-.55 0-1.02.21-.48.2-.84.56-.36.35-.56.82-.21.48-.21 1.02v10.99h-1.78v-10.99q0-.54-.21-1.02-.2-.47-.56-.82-.36-.36-.84-.56-.47-.21-1.02-.21h-.89q-.54 0-1.02.21-.47.2-.83.56-.35.35-.55.82-.21.48-.21 1.02v10.99h-1.8v-15h.6l.98 1.52q.62-.83 1.55-1.32t2.03-.49h.14q1.28 0 2.3.63 1.03.62 1.59 1.67.27-.52.68-.94.41-.43.91-.73t1.09-.47q.58-.16 1.21-.16h.15q.91 0 1.71.34.81.34 1.41.94t.94 1.41q.35.81.35 1.71Zm13.62-4.11q0 .91-.34 1.72-.35.8-.95 1.4t-1.4.95q-.81.34-1.72.34h-1.2q-.91 0-1.71-.34-.81-.35-1.41-.95t-.94-1.4q-.35-.81-.35-1.72v-6.77q0-.9.35-1.71.34-.81.94-1.41t1.41-.94q.8-.34 1.71-.34h1.2q.91 0 1.72.34.8.34 1.4.94t.95 1.41q.34.81.34 1.71v3.53h-8.22v3.34q0 .55.21 1.02.2.48.55.83.36.35.83.56.48.2 1.02.2h1.2q.54 0 1.02-.2.48-.21.83-.56t.55-.83q.21-.47.21-1.02v-.99l1.8.29Zm-1.8-4.64v-2.23q0-.54-.21-1.02-.2-.47-.55-.82-.35-.36-.83-.56-.48-.21-1.02-.21h-1.2q-.54 0-1.02.21-.47.2-.83.56-.35.35-.55.82-.21.48-.21 1.02v2.23Zm15.42 8.75h-1.8v-10.99q0-.54-.2-1.02-.21-.47-.56-.82-.35-.36-.83-.56-.47-.21-1.02-.21h-1.2q-.54 0-1.01.21-.48.2-.83.56-.35.35-.56.82-.2.48-.2 1.02v10.99h-1.81v-15h.61l.98 1.52q.61-.83 1.54-1.32t2.03-.49h.45q.91 0 1.72.34.8.34 1.4.94.61.6.95 1.41t.34 1.71Zm10.71.01h-1.64q-.82 0-1.54-.31-.73-.31-1.26-.85-.54-.54-.85-1.26-.32-.72-.32-1.54v-9.33h-2.69v-1.71h2.69v-3.61l1.8-.29v3.9h3.81v1.71h-3.81v9.42q0 .46.17.84.17.39.46.68.3.3.69.47.4.16.85.16h1.64Zm-132.34 33.83v.63q0 1.07-.43 2.01-.44.93-1.16 1.64-.73.7-1.69 1.1-.96.41-2.02.41h-1.51q-1.07 0-2.03-.41-.96-.4-1.69-1.1-.72-.71-1.15-1.64-.44-.94-.44-2.01v-.84l1.89-.3v1.14q0 .7.29 1.31.28.61.77 1.07.48.46 1.12.72.64.27 1.34.27h1.32q.7 0 1.33-.27.63-.26 1.11-.72.49-.46.77-1.07.29-.61.29-1.31v-.63q0-1.08-.43-1.8-.42-.72-1.12-1.23-.71-.5-1.59-.85-.89-.35-1.83-.71-.93-.35-1.82-.77-.89-.43-1.59-1.06-.7-.64-1.13-1.56-.42-.93-.42-2.27v-.4q0-1.07.4-2.01.4-.93 1.11-1.64.7-.7 1.64-1.1.95-.41 2.02-.41h1.35q1.06 0 2 .41.94.4 1.64 1.1.71.71 1.11 1.64.4.94.4 2.01v.54l-1.89.31v-.85q0-.7-.26-1.31-.27-.61-.72-1.06-.45-.46-1.06-.72t-1.31-.26h-1.17q-.71 0-1.32.26-.6.26-1.06.72-.47.45-.73 1.06t-.26 1.31v.4q0 1.01.42 1.69.43.69 1.13 1.18t1.59.85q.88.36 1.82.74.94.37 1.83.82.88.44 1.59 1.09.7.66 1.12 1.59.43.94.43 2.29m13.47-9.51-7.58 21.01h-1.75l2.67-7.3-4.86-13.71h1.8l3.91 11.37.06.78.06-.78 3.89-11.37Zm12.13 11.19q0 .91-.37 1.67-.36.75-.99 1.29t-1.46.84q-.83.31-1.74.31h-1.2q-.91 0-1.73-.35-.83-.34-1.45-.94-.63-.6-1-1.41t-.37-1.71v-.6l1.8-.3v1q0 .54.23 1.02.22.47.6.82.38.36.88.56.5.21 1.04.21h1.2q.55 0 1.04-.17.5-.16.89-.46t.61-.72q.23-.43.23-.97 0-.8-.35-1.32-.35-.51-.93-.85-.58-.35-1.32-.58l-1.51-.45q-.78-.23-1.52-.52t-1.32-.77q-.58-.47-.93-1.19t-.35-1.79q0-.91.35-1.66.35-.76.95-1.3t1.4-.84 1.71-.3h1.05q.91 0 1.72.34.8.35 1.4.95t.95 1.4q.34.81.34 1.72v.06l-1.8.29v-.45q0-.55-.2-1.02-.21-.48-.56-.83t-.83-.56q-.47-.2-1.02-.2h-1.05q-.54 0-1.02.16t-.83.46-.55.73q-.21.42-.21.96 0 .78.35 1.27t.93.83q.58.33 1.32.56l1.51.47q.77.24 1.51.55t1.32.79.93 1.21q.35.72.35 1.79m10.55 3.8h-1.64q-.82 0-1.55-.31-.72-.3-1.26-.85-.53-.54-.85-1.25-.31-.72-.31-1.54v-9.33h-2.7v-1.72h2.7v-3.6l1.8-.29v3.89h3.81v1.72h-3.81v9.42q0 .45.17.84t.46.68.69.46.85.17h1.64Zm13.33-4.1q0 .9-.34 1.71-.35.81-.95 1.41t-1.4.94q-.81.35-1.72.35h-1.2q-.91 0-1.71-.35-.81-.34-1.41-.94t-.94-1.41q-.35-.81-.35-1.71v-6.77q0-.91.35-1.72.34-.8.94-1.4t1.41-.95q.8-.34 1.71-.34h1.2q.91 0 1.72.34.8.35 1.4.95t.95 1.4q.34.81.34 1.72v3.53h-8.22v3.34q0 .54.21 1.02.2.47.55.82.36.36.83.56.48.21 1.02.21h1.2q.54 0 1.02-.21.48-.2.83-.56.35-.35.55-.82.21-.48.21-1.02v-1l1.8.3Zm-1.8-4.65v-2.22q0-.55-.21-1.02-.2-.48-.55-.83t-.83-.56q-.48-.2-1.02-.2h-1.2q-.54 0-1.02.2-.47.21-.83.56-.35.35-.55.83-.21.47-.21 1.02v2.22Zm23.04 8.75h-1.8v-10.98q0-.55-.21-1.02-.2-.48-.55-.83t-.83-.56q-.48-.2-1.02-.2h-.89q-.54 0-1.02.2-.48.21-.84.56-.35.35-.56.83-.2.47-.2 1.02v10.98h-1.79v-10.98q0-.55-.21-1.02-.2-.48-.56-.83t-.84-.56q-.47-.2-1.01-.2h-.9q-.54 0-1.01.2-.48.21-.83.56t-.56.83q-.2.47-.2 1.02v10.98h-1.81v-15h.6l.99 1.53q.61-.84 1.54-1.33t2.03-.49h.15q1.27 0 2.3.63 1.02.63 1.58 1.67.28-.51.69-.94.41-.42.91-.72.49-.3 1.08-.47t1.22-.17h.14q.91 0 1.72.34.8.35 1.4.95t.95 1.4q.34.81.34 1.72ZM766.982.05a113.587 113.587 0 1 0 0 227.174 113.587 113.587 0 1 0 0-227.174"/><path fill="#002a29" d="M804.522 56.372h-14.118c-1.086-3.15-4.073-5.43-7.602-5.43h-9.611a10.86 10.86 0 0 0-18.788 0h-9.611c-3.53 0-6.516 2.28-7.602 5.43h-14.118a8.134 8.134 0 0 0-8.145 8.145v103.17a8.134 8.134 0 0 0 8.145 8.145h81.45a8.134 8.134 0 0 0 8.145-8.145V64.517a8.134 8.134 0 0 0-8.145-8.145m-59.73 0h11.403a2.715 2.715 0 0 0 2.498-1.793c.76-2.172 2.823-3.638 5.104-3.638 2.28 0 4.344 1.466 5.104 3.638a2.69 2.69 0 0 0 2.552 1.792h11.349a2.69 2.69 0 0 1 2.715 2.715v2.716h-43.44v-2.715a2.69 2.69 0 0 1 2.715-2.716m62.445 111.315a2.715 2.715 0 0 1-2.715 2.715h-81.45a2.715 2.715 0 0 1-2.715-2.715V64.516a2.69 2.69 0 0 1 2.715-2.715h13.575v2.716a2.69 2.69 0 0 0 2.715 2.715h48.87a2.715 2.715 0 0 0 2.715-2.715v-2.715h13.575a2.69 2.69 0 0 1 2.715 2.715Z"/><path fill="#002a29" d="M799.092 105.242h-48.87a2.715 2.715 0 0 0 0 5.43h48.87a2.715 2.715 0 1 0 0-5.43m0-21.72h-48.87a2.715 2.715 0 0 0 0 5.43h48.87a2.715 2.715 0 1 0 0-5.43m0 43.44h-48.87a2.715 2.715 0 0 0 0 5.43h48.87a2.715 2.715 0 1 0 0-5.43m-27.15 21.72h-21.72a2.715 2.715 0 1 0 0 5.43h21.72a2.715 2.715 0 1 0 0-5.43m-38.01-5.43a8.145 8.145 0 1 0 0 16.29 8.145 8.145 0 0 0 0-16.29m0 10.86a2.715 2.715 0 1 1 0-5.43 2.715 2.715 0 0 1 0 5.43m0-32.58a8.145 8.145 0 1 0 0 16.29 8.145 8.145 0 0 0 0-16.29m0 10.86a2.715 2.715 0 1 1 0-5.43 2.715 2.715 0 0 1 0 5.43m0-32.58a8.145 8.145 0 1 0 0 16.29 8.145 8.145 0 0 0 0-16.29m0 10.86a2.715 2.715 0 1 1 0-5.43 2.715 2.715 0 0 1 0 5.43m0-32.58a8.145 8.145 0 1 0 0 16.29 8.145 8.145 0 0 0 0-16.29m0 10.86a2.715 2.715 0 1 1 0-5.43 2.715 2.715 0 0 1 0 5.43"/></g><path fill="transparent" stroke="transparent" d="M469.5 0h561v491h-561z"/></g></svg>